<svg width="50" height="50" viewBox="0 0 50 50" fill="none" xmlns="http://www.w3.org/2000/svg">
<g clip-path="url(#clip0_313_1022)">
<path d="M11.3715 32.0376C11.5249 31.9881 11.6776 31.9337 11.8373 31.8758L19.6821 28.8332L19.9011 28.7503L29.0956 33.4642C29.1519 33.4944 29.2146 33.5163 29.2794 33.5355C29.2849 33.5398 29.2926 33.5413 29.3003 33.5428C29.5046 33.5991 29.7231 33.5911 29.9215 33.5234C29.9504 33.5147 29.9764 33.5039 30.0019 33.4882L32.6196 32.0661C32.6245 32.0654 32.6266 32.0627 32.6315 32.062L32.6456 32.0552C32.6597 32.0485 32.6738 32.0417 32.6879 32.0349C32.7211 32.0207 32.7514 32.0043 32.7818 31.988C32.7931 31.979 32.8023 31.9729 32.8142 31.9688C32.8418 31.9504 32.8672 31.9346 32.8921 31.914C32.9083 31.9044 32.9169 31.8934 32.9304 31.8817C32.953 31.8638 32.9735 31.8487 32.9934 31.8287C33.0091 31.8142 33.0198 31.8004 33.0354 31.7859C33.0504 31.7665 33.0681 31.7493 33.0831 31.7299L33.111 31.6939C33.1431 31.6524 33.1697 31.6066 33.1963 31.5608C33.1999 31.5503 33.2063 31.542 33.2078 31.5344C33.2338 31.4836 33.2548 31.4336 33.2704 31.3792C33.2755 31.3611 33.2828 31.3402 33.288 31.322C33.2984 31.2858 33.3059 31.2474 33.3086 31.2096C33.311 31.1894 33.3183 31.1685 33.3207 31.1482C33.3215 31.0957 33.3223 31.0432 33.3203 30.9886C33.3205 30.9711 33.3159 30.9542 33.314 30.9395C33.3111 30.8974 33.3033 30.856 33.2928 30.8124C33.2909 30.7977 33.2863 30.7809 33.2816 30.764C33.2649 30.7112 33.2454 30.6563 33.2238 30.6042C33.2182 30.5999 33.2148 30.5929 33.2142 30.588C33.1883 30.5414 33.1624 30.4948 33.1322 30.4537C33.1233 30.4424 33.1165 30.4283 33.1048 30.4148C33.0691 30.3695 33.0306 30.322 32.9856 30.2828C32.9684 30.2651 32.9518 30.2522 32.9352 30.2394L27.0137 25.9334L26.3232 25.4302L27.0856 25.0509C27.0877 25.0482 33.6129 21.8122 33.6129 21.8122C34.2932 21.4933 34.7215 20.8024 34.7004 20.0516C34.6998 20.0467 34.7013 20.039 34.7007 20.0341L34.6907 17.8848L34.6672 11.84C34.6578 11.5318 34.5109 11.2413 34.2694 11.05L34.25 11.035C34.239 11.0265 34.2257 11.0207 34.2174 11.0143C34.1904 10.9978 34.1655 10.9785 34.1384 10.962C34.0981 10.9397 34.0585 10.9223 34.0189 10.9049C34.0112 10.9034 34.0084 10.9012 34.0035 10.9019C33.9666 10.8866 33.9304 10.8763 33.8914 10.8638C33.8655 10.8571 33.8348 10.851 33.8069 10.8471C33.7943 10.8462 33.7789 10.8432 33.7685 10.8396C33.5735 10.8171 33.3778 10.847 33.1987 10.9298C33.1754 10.9427 33.1515 10.9508 33.1282 10.9638L31.3943 11.8438C31.383 11.8528 31.3717 11.8617 31.3576 11.8685C31.3018 11.9006 31.2494 11.9397 31.2047 11.9803C31.1912 11.992 31.1777 12.0037 31.1664 12.0127C31.1153 12.0616 31.0675 12.1176 31.0275 12.1751L31.0232 12.1806C30.9788 12.2437 30.9428 12.3132 30.9123 12.3869C30.9102 12.3897 30.908 12.3925 30.9087 12.3974C30.8824 12.4656 30.8639 12.5353 30.853 12.6066C30.85 12.6219 30.8463 12.6324 30.8454 12.645L29.5332 18.5459C29.5287 18.569 29.5241 18.592 29.5224 18.6172L29.3013 18.7028C29.2872 18.7096 29.2737 18.7213 29.2596 18.728L11.2268 25.8637C10.0824 26.3192 9.02134 26.9587 8.08536 27.7568C7.33264 28.4268 6.50586 29.6501 6.51703 30.734C6.54916 33.2323 9.93404 32.5231 11.3715 32.0376Z" fill="white"/>
<path d="M20.2726 14.3818L22.2874 13.0696C22.3015 13.0606 22.3161 13.052 22.3311 13.0442C22.8486 12.7853 23.4778 12.9949 23.7367 13.5124C23.8151 13.6691 23.8529 13.843 23.8467 14.0182L24.0846 19.6595L18.3694 21.922L19.7637 15.0674C19.827 14.7764 20.0124 14.5267 20.2726 14.3818Z" fill="white"/>
</g>
<defs>
<clipPath id="clip0_313_1022">
<rect width="35" height="35" fill="white" transform="matrix(-0.611836 0.790985 0.790985 0.611836 21.4143 0)"/>
</clipPath>
</defs>
</svg>
