<svg width="35" height="35" viewBox="0 0 35 35" fill="none" xmlns="http://www.w3.org/2000/svg">
<path d="M31.4856 11.6583C31.3526 11.7493 31.2161 11.8368 31.0726 11.9278L23.8662 16.2713L23.6667 16.3937L21.7698 26.5506C21.7592 26.6136 21.7382 26.6766 21.7137 26.7396C21.7137 26.7466 21.7103 26.7536 21.7068 26.7606C21.6262 26.9566 21.4863 27.1246 21.3113 27.2401C21.2868 27.2576 21.2623 27.2716 21.2342 27.2821L18.5078 28.4826C18.5043 28.4861 18.5008 28.4861 18.4973 28.4896L18.4833 28.4966C18.4693 28.5036 18.4553 28.5106 18.4413 28.5176C18.4098 28.5351 18.3783 28.5491 18.3468 28.5631C18.3328 28.5666 18.3223 28.5701 18.3118 28.5771C18.2803 28.5876 18.2523 28.5981 18.2208 28.6051C18.2033 28.6121 18.1893 28.6121 18.1718 28.6156C18.1438 28.6226 18.1193 28.6296 18.0913 28.6331C18.0703 28.6366 18.0528 28.6366 18.0318 28.6401C18.0073 28.6401 17.9828 28.6436 17.9583 28.6436H17.9128C17.8603 28.6436 17.8078 28.6366 17.7553 28.6296C17.7448 28.6261 17.7343 28.6261 17.7273 28.6226C17.6713 28.6121 17.6188 28.5981 17.5663 28.5771C17.5488 28.5701 17.5278 28.5631 17.5103 28.5561C17.4753 28.5421 17.4403 28.5246 17.4088 28.5036C17.3913 28.4931 17.3703 28.4861 17.3528 28.4756C17.3108 28.4441 17.2688 28.4126 17.2268 28.3776C17.2128 28.3671 17.2023 28.3531 17.1918 28.3426C17.1603 28.3146 17.1323 28.2831 17.1043 28.2481C17.0938 28.2376 17.0833 28.2236 17.0728 28.2096C17.0413 28.1641 17.0098 28.1151 16.9818 28.0661C16.9818 28.0591 16.9783 28.0521 16.9748 28.0486C16.9538 27.9996 16.9328 27.9506 16.9188 27.9016C16.9153 27.8876 16.9083 27.8736 16.9048 27.8561C16.8908 27.8001 16.8768 27.7406 16.8733 27.6811C16.8698 27.6566 16.8698 27.6356 16.8698 27.6146L17.0868 20.2962L17.1113 19.4422L16.3448 19.8132C16.3413 19.8132 9.78938 22.9947 9.78938 22.9947C9.1209 23.3377 8.31241 23.2537 7.73143 22.7777C7.72792 22.7742 7.72092 22.7707 7.71741 22.7672L6.02344 21.4442L1.2565 17.7272C1.01849 17.5312 0.878503 17.2373 0.875 16.9293V16.9048C0.875 16.8908 0.878503 16.8767 0.878503 16.8663C0.882007 16.8347 0.882007 16.8033 0.88551 16.7718C0.892495 16.7262 0.903006 16.6843 0.913494 16.6423C0.916998 16.6352 0.916998 16.6317 0.920501 16.6283C0.93099 16.5897 0.945003 16.5548 0.958996 16.5163C0.969506 16.4918 0.983498 16.4638 0.99749 16.4392C1.0045 16.4288 1.0115 16.4147 1.01501 16.4043C1.1165 16.2363 1.25999 16.0998 1.43498 16.0088C1.45949 15.9983 1.48049 15.9843 1.50499 15.9738L3.26197 15.1408C3.27597 15.1373 3.28998 15.1338 3.30397 15.1268C3.36346 15.1023 3.42646 15.0848 3.48598 15.0743C3.50347 15.0708 3.52097 15.0673 3.53496 15.0638C3.60496 15.0533 3.67847 15.0498 3.74847 15.0533H3.75546C3.83247 15.0568 3.90946 15.0708 3.98647 15.0918C3.98997 15.0918 3.99345 15.0918 3.99696 15.0953C4.06696 15.1163 4.13346 15.1443 4.19646 15.1793C4.21047 15.1863 4.22096 15.1898 4.23147 15.1968L9.70188 17.7692C9.7229 17.7797 9.7439 17.7902 9.7649 17.8042L9.96788 17.6817C9.9819 17.6747 9.99939 17.6712 10.0134 17.6642L26.6907 7.76637C27.7512 7.13986 28.9062 6.69188 30.1102 6.43987C31.1006 6.25438 32.5741 6.34889 33.4246 7.02087C35.3811 8.57485 32.7491 10.8183 31.4856 11.6583Z" fill="white"/>
<path d="M12.0742 7.89662L9.80345 8.68745C9.78774 8.69302 9.77205 8.69936 9.75659 8.70645C9.23527 8.95736 9.01606 9.58337 9.26696 10.1047C9.34297 10.2626 9.45739 10.3989 9.59973 10.5012L13.9165 14.1409L19.2027 11.0045L12.9278 7.91359C12.6589 7.78557 12.3479 7.77938 12.0742 7.89662Z" fill="white"/>
</svg>
